# xmcd
#
# Track frame offsets:
#	150
#	16275
#	36332
#	68085
#	81827
#	99035
#	112067
#	126362
#	141167
#	157620
#	173977
#	186290
#	201137
#	211545
#	227650
#
# Disc length: 3335
#
# Revision: 1
# Processed by: cddbd v1.5.1PL0 Copyright (c) Steve Scherf et al.
# Submitted via: dBpowerAMP V4.0
# Normalized: r0:TDELIM( - )
#
DISCID=c10d050f
DTITLE=Various Artist - Hollandse kerststerren
DYEAR=1900
DGENRE=X-Mas
TTITLE0=Rene Froger - Under the Christmas Tree
TTITLE1=Gerard Joling - Last Christmas
TTITLE2=Grant and Forsyth - Winterwonderland medley
TTITLE3=Willeke Alberti - Feliz Navidad
TTITLE4=Pussycat - Mary's boy  child
TTITLE5=Het holland Duo - Heel gelukkig kerstfeest
TTITLE6=Rob de Nijs - Natte kerst
TTITLE7=Frank and Mirella - Medley
TTITLE8=Ron Brandsteder - Wat je droomt is goed
TTITLE9=Bonnie st. Claire - Lonely this Christmas
TTITLE10=Donna Lynton - A Cold christmas
TTITLE11=George Baker - Snow is falling
TTITLE12=The Cats - White Christmas
TTITLE13=Anny Schilder - Christmas without you
TTITLE14=De Havenzangers - Een heel gelukkig kerstfeest
EXTD=
EXTT0=
EXTT1=
EXTT2=
EXTT3=
EXTT4=
EXTT5=
EXTT6=
EXTT7=
EXTT8=
EXTT9=
EXTT10=
EXTT11=
EXTT12=
EXTT13=
EXTT14=
PLAYORDER=
